<svg width="1080" height="973" viewBox="0 0 1080 973" fill="none" xmlns="http://www.w3.org/2000/svg">
<path d="M184.964 12.7104C191.538 10.2998 206.002 6.57432 216.74 4.38288C229.451 1.75315 246.545 0.219144 264.954 0.219144C281.39 0 301.552 1.31486 312.509 3.28716C323.248 5.04032 339.903 9.20405 349.765 12.2721C359.846 15.5592 375.406 21.4761 384.391 25.859C393.376 30.2419 409.812 39.6651 420.551 46.8968C431.289 54.1286 449.26 69.0304 459.998 79.9876C470.736 90.7257 486.077 108.915 493.966 120.091C501.856 131.267 512.814 149.456 518.511 160.633C524.209 171.59 531.222 186.93 533.852 194.6C536.701 202.051 539.331 208.187 539.988 208.187C540.646 208.187 543.056 203.147 545.248 196.791C547.659 190.436 554.671 174.877 561.027 162.167C567.163 149.456 578.778 130.391 586.229 119.434C593.899 108.696 609.021 90.9448 619.978 79.9876C630.936 69.0304 647.591 54.786 657.234 48.2117C666.877 41.6374 683.094 32.2142 693.394 27.1739C703.694 22.1336 720.13 15.3401 729.992 12.2721C740.073 9.20405 756.729 5.04032 767.248 3.28716C777.986 1.53401 798.367 0 812.831 0C827.295 0 847.457 1.53401 857.757 3.28716C868.057 5.25946 882.74 8.76577 890.63 11.3955C898.519 13.8061 913.203 19.9421 923.503 24.5441C933.803 29.3653 950.02 38.7885 959.663 45.582C969.305 52.3755 984.207 64.8667 992.535 73.4133C1001.08 81.7408 1012.04 94.232 1017.08 100.806C1022.12 107.381 1031.32 121.187 1037.46 131.486C1043.6 141.786 1052.58 160.414 1057.62 173.124C1062.44 185.834 1069.46 207.53 1073.18 221.336C1079.32 244.127 1079.98 249.605 1079.98 278.313C1080.2 300.666 1078.88 315.568 1076.25 328.716C1074.06 339.016 1068.14 359.616 1063.1 374.737C1058.06 389.857 1047.54 415.497 1039.43 431.714C1031.54 447.931 1016.86 474.666 1006.78 490.883C996.918 507.1 980.263 532.301 969.963 546.765C959.443 561.228 939.501 587.306 925.475 604.838C911.449 622.369 886.685 651.296 870.687 669.485C854.47 687.455 820.502 722.957 795.299 748.377C769.878 773.579 733.499 808.642 714.213 826.173C694.928 843.705 665.343 870.002 648.468 884.685C631.593 899.368 600.474 925.227 579.435 942.101C558.397 959.194 539.988 973 538.892 973C537.797 973 518.511 958.098 496.158 939.909C473.805 921.72 444.877 897.395 431.508 885.781C418.14 874.166 393.157 851.813 375.625 836.254C358.093 820.476 318.646 782.564 287.964 751.884C257.283 720.984 218.274 680.004 201.181 660.72C184.306 641.435 161.076 613.823 149.68 599.359C138.065 584.896 121.191 562.762 111.986 550.052C103.001 537.341 87.4413 514.112 77.5795 498.553C67.7177 482.994 51.9388 454.286 42.2962 435.001C32.8727 415.716 21.2577 388.104 16.4363 373.641C11.615 359.177 6.13623 338.359 3.94472 327.621C1.53406 315.129 0 297.379 0 279.409C0 259.905 1.09576 245.003 3.94472 232.293C6.13623 221.993 10.9576 204.681 14.464 193.943C17.9704 183.205 24.9832 165.235 30.2428 154.497C35.2833 143.759 45.8026 125.35 53.4729 113.955C61.3623 102.559 76.0454 84.8088 86.3455 74.509C96.6456 64.2092 113.301 50.184 123.601 43.3905C133.901 36.5971 149.023 27.8313 157.57 23.8867C166.117 20.1613 178.389 15.1209 184.964 12.7104Z" fill="#F85548"/>
</svg>
