<svg width="1080" height="880" viewBox="0 0 1080 880" fill="none" xmlns="http://www.w3.org/2000/svg">
<path fillRule="evenodd" clipRule="evenodd" d="M317.302 0.0260155C401.191 0.360797 404.54 0.528188 409.73 3.70862C412.744 5.54992 416.428 9.23252 417.767 12.0782C419.107 14.7564 467.833 204.243 525.935 433.066C584.037 661.89 631.591 851.376 631.591 854.054C631.591 856.733 630.586 861.42 629.079 864.098C627.74 866.776 624.558 870.961 617.526 877.489L552.056 877.991C492.112 878.326 485.916 878.159 480.726 875.481C477.544 873.807 473.526 870.626 471.851 868.283C469.842 865.437 462.14 831.122 447.907 761.989C436.186 705.914 426.474 658.542 425.972 656.868C425.302 654.19 418.605 654.022 205.953 654.022L204.279 662.727C203.274 667.581 193.563 715.12 182.512 768.183C169.619 830.62 161.414 866.441 159.572 869.12C157.898 871.296 153.712 874.309 150.363 875.815C145.005 877.991 133.619 878.326 79.2 878.326C16.4093 878.494 14.0651 878.326 9.71163 874.978C7.03256 873.137 3.85116 869.287 2.51163 866.609C1.17209 863.931 0 859.578 0 856.9C0 854.389 21.9349 765.337 48.5581 659.044C75.1814 552.751 122.735 363.599 154.047 238.893C198.753 61.1237 211.981 11.0738 214.995 7.39122C217.005 4.88035 221.358 2.03471 224.54 1.19775C227.721 0.528188 269.414 -0.141375 317.302 0.0260155V0.0260155ZM234.753 516.26C235.088 516.594 271.758 516.594 316.465 516.26L397.674 515.925C335.219 237.052 316.633 155.03 316.298 154.026C315.963 152.854 297.377 233.704 274.94 333.971C252.502 434.071 234.419 516.092 234.753 516.26ZM903.349 338.49C927.126 338.993 938.846 339.997 949.395 342.508C957.265 344.182 968.484 347.53 974.512 349.706C980.54 351.882 991.423 357.071 998.623 361.088C1006.66 365.608 1017.21 373.643 1024.91 381.175C1031.94 388.038 1041.49 399.421 1046.01 406.284C1050.53 413.147 1056.73 424.864 1059.74 432.229C1062.92 439.595 1067.61 454.325 1070.29 464.871C1072.8 475.416 1076.15 494.834 1077.49 507.89C1079.5 527.307 1080 563.129 1080 863.261L1075.48 868.617C1072.8 871.463 1068.28 874.811 1065.43 876.15C1061.41 877.657 1049.86 878.326 1023.07 878.326C996.446 878.326 984.726 877.657 980.874 876.15C977.86 874.978 973.674 871.296 971.665 868.115C969.656 864.935 967.814 861.085 967.814 859.411C967.814 857.904 967.312 856.565 966.642 856.565C965.805 856.565 960.446 858.239 954.419 860.583C948.391 862.759 934.828 866.944 924.279 869.622C913.73 872.468 896.484 875.983 886.27 877.489C875.888 878.828 858.809 880 848.595 880C838.214 880 822.474 878.828 813.767 877.657C805.06 876.317 791.498 873.137 783.628 870.626C775.758 868.283 764.874 864.265 759.349 861.754C753.823 859.244 744.112 853.72 737.581 849.702C731.051 845.518 721.005 837.818 714.977 832.796C708.949 827.607 700.242 818.568 695.386 812.709C690.698 807.018 682.995 795.802 678.307 787.935C673.619 780.068 667.591 767.011 664.912 758.642C662.065 750.272 659.219 739.392 658.214 734.37C657.377 729.348 656.037 720.309 655.535 714.283C654.865 708.257 655.367 695.87 656.372 686.664C657.544 677.457 660.223 663.564 662.567 655.696C664.744 647.829 669.767 635.107 673.619 627.24C679.144 615.857 683.498 610.166 694.884 598.783C706.102 587.568 712.298 582.714 724.186 576.688C732.558 572.336 747.126 566.31 756.837 562.962C766.549 559.781 781.953 555.596 791.163 553.755C800.372 551.914 816.949 549.236 828 547.897C839.051 546.39 860.819 544.549 876.558 543.544C892.298 542.707 918.921 541.87 966.977 541.87L965.637 528.981C964.8 521.783 962.791 510.568 961.116 504.207C959.609 497.679 956.595 489.31 954.586 485.292C952.744 481.442 947.888 475.249 944.037 471.399C940.019 467.716 933.488 463.029 929.302 461.188C925.116 459.179 918.084 456.501 913.395 455.329C908.874 454.158 897.823 452.651 889.116 451.981C877.228 451.312 869.693 451.814 858.977 453.99C851.107 455.497 836.037 459.849 825.488 463.531C814.94 467.381 797.191 474.244 786.14 479.099C775.088 483.953 761.86 489.812 756.837 492.323C751.814 494.666 745.953 496.675 743.944 496.675C741.767 496.675 738.084 495.838 735.572 495.001C732.893 493.997 719.33 481.777 705.098 467.716C691.033 453.655 678.474 439.762 677.135 436.749C675.795 433.903 674.791 429.384 674.791 426.705C674.791 424.195 676.298 419.675 678.14 416.662C679.981 413.816 685.507 408.292 690.363 404.777C695.051 401.262 708.446 392.892 720 386.364C731.553 379.836 748.8 371.132 758.512 367.114C768.223 363.097 782.121 357.908 789.488 355.564C796.856 353.221 809.246 349.538 817.116 347.697C824.986 345.688 840.391 342.675 851.442 340.834C867.684 338.323 877.73 337.821 903.349 338.49ZM820.465 660.885C812.595 662.894 801.879 666.577 796.688 669.255C791.33 671.933 783.963 677.122 780.279 680.805C776.595 684.487 772.074 690.681 770.233 694.531C768.056 699.553 766.884 705.411 766.884 713.446C766.884 719.807 767.721 728.177 768.726 731.859C769.898 735.542 773.916 741.903 777.767 746.087C781.953 750.44 789.321 755.629 795.516 758.642C805.898 763.496 807.07 763.663 830.512 763.663C851.274 763.663 856.8 762.994 868.186 759.646C875.553 757.47 886.772 753.285 893.302 750.44C899.833 747.426 909.544 742.07 914.902 738.387C920.428 734.872 928.633 728.511 933.153 724.327C937.842 720.142 944.707 712.274 948.726 706.75C952.744 701.227 957.935 691.853 960.279 685.827C962.791 679.801 965.302 670.259 965.805 664.401L966.977 654.022C886.605 654.357 856.8 655.194 848.93 655.864C841.06 656.701 828.335 659.044 820.465 660.885V660.885Z" fill="#F85548"/>
</svg>
