<svg width="24" height="21" viewBox="0 0 24 21" fill="none" xmlns="http://www.w3.org/2000/svg">
<path d="M16.6764 2.04985C18.0215 2.12421 19.2827 2.7272 20.1851 3.72742C21.0876 4.72763 21.5581 6.04399 21.4942 7.38964C21.4942 10.5333 18.7803 12.4644 16.1759 14.7802C13.6053 17.0756 12.2208 18.3302 11.7725 18.6198C11.2844 18.3036 9.57952 16.7542 7.36911 14.7802C4.75347 12.4552 2.05084 10.5057 2.05084 7.38964C1.98695 6.04399 2.4575 4.72763 3.35995 3.72742C4.2624 2.7272 5.5236 2.12421 6.8687 2.04985C7.61384 2.02727 8.35209 2.19842 9.01127 2.54658C9.67046 2.89474 10.228 3.40799 10.6295 4.03615C11.4891 5.23858 11.6323 5.84031 11.7756 5.84031C11.9189 5.84031 12.0601 5.23858 12.9115 4.03308C13.3107 3.40201 13.8684 2.88673 14.5291 2.53871C15.1897 2.19069 15.9302 2.02213 16.6764 2.04985ZM16.6764 0.00316582C15.7471 -0.026586 14.8231 0.153682 13.9732 0.530546C13.1232 0.90741 12.3693 1.47116 11.7674 2.17981C11.1661 1.47322 10.4137 0.910775 9.56575 0.534026C8.71785 0.157278 7.79614 -0.0241439 6.8687 0.00316582C4.98052 0.0770019 3.19839 0.895502 1.91201 2.27969C0.625638 3.66387 -0.0603091 5.5011 0.00416676 7.38964C0.00416676 11.0839 2.61367 13.3527 5.1362 15.5457C5.4258 15.7974 5.71847 16.0512 6.0091 16.3101L7.06007 17.2495C8.20624 18.3402 9.40787 19.371 10.6602 20.338C10.9915 20.5525 11.3778 20.6667 11.7725 20.6667C12.1673 20.6667 12.5536 20.5525 12.8849 20.338C14.1771 19.3415 15.4157 18.2775 16.5955 17.1503L17.539 16.307C17.8389 16.041 18.1428 15.7759 18.4447 15.515C20.8331 13.4427 23.5409 11.0941 23.5409 7.38964C23.6054 5.5011 22.9194 3.66387 21.633 2.27969C20.3467 0.895502 18.5645 0.0770019 16.6764 0.00316582Z" fill="white"/>
</svg>
