<svg width="1611" height="1612" viewBox="0 0 1611 1612" fill="none" xmlns="http://www.w3.org/2000/svg">
<path fill-rule="evenodd" clip-rule="evenodd" d="M818.899 0.212857C858.895 0.768325 888.336 2.9902 917.5 7.15621C940.553 10.489 978.049 17.9878 1000.82 23.8202C1023.88 29.6527 1058.87 40.2065 1078.59 47.1499C1098.31 54.371 1135.81 70.7573 1161.92 83.533C1188.03 96.3088 1224.13 116.583 1242.47 128.804C1260.8 140.746 1287.74 159.91 1302.18 171.019C1316.62 182.129 1348.57 211.568 1373.28 236.009C1397.73 260.727 1428.56 294.333 1441.33 311.275C1454.39 328.217 1470.5 350.435 1477.72 361.267C1484.66 372.099 1498.55 395.151 1508.83 412.648C1518.82 430.145 1533.82 460.14 1542.16 479.304C1550.49 498.468 1561.6 527.074 1567.15 543.183C1572.99 559.291 1581.04 586.787 1585.48 604.284C1589.93 621.781 1596.04 650.666 1599.09 668.163C1602.15 685.66 1606.04 713.156 1607.7 729.264C1609.09 745.373 1610.48 780.923 1610.48 808.419C1610.48 835.914 1608.54 874.797 1606.32 894.516C1604.09 914.235 1599.65 943.675 1596.59 959.784C1593.26 975.892 1587.71 1000.89 1583.82 1015.33C1579.65 1029.77 1571.6 1056.16 1565.49 1073.65C1559.1 1091.15 1547.16 1121.15 1538.55 1140.31C1529.66 1159.47 1514.94 1188.91 1505.22 1205.58C1495.49 1222.24 1478.83 1248.63 1468 1263.9C1457.44 1279.18 1439.11 1303.34 1427.45 1317.78C1415.78 1332.22 1392.45 1357.78 1375.78 1374.44C1359.12 1391.38 1331.34 1416.38 1314.68 1429.99C1298.02 1443.87 1268.57 1465.26 1249.41 1478.04C1230.24 1490.53 1200.8 1508.03 1184.14 1517.2C1167.47 1526.36 1141.64 1538.86 1127.2 1544.97C1112.76 1551.36 1089.7 1560.52 1075.82 1565.24C1061.93 1570.24 1042.76 1576.63 1032.77 1579.69C1022.77 1582.46 1000.82 1588.02 984.159 1591.63C967.495 1595.52 936.665 1601.07 916.111 1604.13C895.558 1607.18 857.506 1610.51 831.398 1611.62C802.512 1612.46 769.46 1611.9 746.685 1609.96C726.131 1608.29 696.69 1604.68 681.414 1602.46C666.138 1600.24 633.641 1593.29 609.199 1587.46C584.757 1581.35 549.206 1570.8 530.041 1563.85C510.876 1556.63 474.214 1540.53 448.105 1527.75C420.33 1514.14 383.668 1493.31 359.226 1476.92C336.173 1461.65 305.065 1438.6 289.789 1426.1C274.513 1413.32 248.96 1389.72 233.128 1373.61C217.574 1357.5 195.354 1333.34 183.967 1319.45C172.579 1305.56 155.359 1283.34 145.36 1269.46C135.638 1255.57 118.696 1229.46 108.141 1211.13C97.3091 1192.8 81.1997 1161.42 72.034 1141.7C63.1461 1121.98 50.3697 1090.6 43.9814 1072.27C37.5932 1053.94 28.1498 1021.44 22.5948 1000.05C17.3176 978.669 10.3739 944.786 7.31867 925.067C3.70794 901.182 1.20821 868.131 0.37496 827.86C-0.458285 790.088 0.097212 753.983 2.04145 733.43C3.98569 715.1 7.87416 685.66 10.9294 668.163C13.9846 650.666 20.0951 621.781 24.5391 604.284C28.983 586.787 37.0377 559.291 42.5927 543.183C48.1477 527.074 58.4244 500.967 65.3681 484.859C72.3118 468.75 83.4217 445.143 90.6432 432.089C97.5869 419.036 108.975 399.039 115.641 387.652C122.584 376.265 137.027 354.324 147.859 339.048C158.692 323.773 178.134 298.777 191.466 283.501C204.798 268.226 228.406 242.952 244.238 227.399C260.07 211.846 285.067 189.35 299.51 177.685C313.953 165.742 341.45 146.023 360.615 133.247C379.779 120.749 405.888 104.641 418.942 97.4197C431.996 90.1986 457.826 77.7006 476.713 69.3686C495.322 61.0366 525.319 49.3718 543.095 42.9839C561.149 36.8737 593.368 27.7085 614.754 22.4316C636.141 17.4324 666.693 11.0445 682.803 8.54487C698.912 6.323 723.354 2.9902 736.963 1.60153C750.851 0.212857 787.514 -0.342611 818.899 0.212857ZM663.36 104.641C647.251 107.696 619.754 114.639 602.256 119.638C584.757 124.915 555.872 134.914 538.373 141.857C520.875 149.078 492.823 161.854 475.88 170.464C458.937 179.074 428.941 196.848 409.221 210.18C389.5 223.511 361.17 244.341 346.727 256.561C332.284 268.782 306.454 292.944 289.789 310.164C272.846 327.661 250.904 352.379 240.905 365.433C230.628 378.486 214.241 401.538 204.242 416.814C194.243 432.089 179.8 456.53 172.301 470.972C164.524 485.414 151.192 514.298 142.86 534.851C134.527 555.403 123.973 585.398 119.251 601.507C114.53 617.615 108.141 643.167 105.086 658.442C101.753 673.718 97.3091 699.825 95.0871 716.766C92.3097 735.375 90.9209 768.98 90.6432 802.864C90.6432 836.747 92.3097 871.464 95.0871 891.739C97.3091 910.069 101.198 935.065 103.697 947.286C105.919 959.506 111.197 981.447 115.085 995.889C118.973 1010.33 127.306 1036.16 133.416 1052.82C139.527 1069.49 153.137 1100.87 163.413 1122.26C173.968 1143.64 193.688 1178.08 207.297 1198.63C220.907 1219.19 242.294 1248.07 254.515 1262.51C266.458 1276.96 292.011 1303.9 311.175 1322.23C330.062 1340.56 358.115 1365 373.113 1376.38C388.389 1387.77 411.442 1403.88 424.497 1411.93C437.551 1419.99 462.548 1434.15 480.046 1443.04C497.544 1451.93 526.43 1464.98 543.928 1471.65C561.427 1478.31 586.424 1487.2 599.478 1491.09C612.532 1494.98 635.03 1500.81 649.473 1503.86C663.916 1507.2 688.913 1511.64 705.022 1514.14C721.132 1516.36 756.128 1519.14 782.792 1519.97C812.789 1521.08 845.841 1520.25 868.894 1518.31C889.447 1516.36 921.944 1511.64 941.109 1508.03C960.273 1504.14 990.825 1496.64 1009.16 1491.37C1027.49 1485.81 1056.37 1475.81 1073.04 1468.87C1089.7 1462.2 1116.65 1449.71 1132.75 1441.65C1148.86 1433.32 1173.03 1419.43 1186.92 1410.82C1200.8 1402.21 1223.86 1386.11 1238.3 1375.27C1252.74 1364.44 1281.35 1339.17 1301.63 1319.45C1322.18 1299.73 1348.84 1270.85 1361.34 1255.57C1373.56 1240.29 1393.01 1213.35 1404.39 1195.86C1416.06 1178.36 1433.83 1146.98 1444.11 1126.42C1454.39 1105.87 1467.44 1076.99 1473 1062.55C1478.55 1048.1 1487.16 1021.72 1492.44 1004.22C1497.44 986.724 1503.83 961.728 1506.33 948.674C1508.55 935.621 1512.71 910.069 1514.94 891.739C1517.44 873.131 1519.38 835.636 1519.38 807.03C1519.38 778.701 1517.99 743.151 1516.33 727.876C1514.38 712.6 1510.49 687.049 1507.44 670.94C1504.38 654.832 1497.99 628.169 1493.27 611.227C1488.55 594.286 1479.38 566.235 1472.44 548.737C1465.78 531.24 1453 502.356 1444.11 484.859C1435.22 467.361 1421.61 442.365 1413.56 429.312C1405.5 416.258 1392.45 397.095 1384.67 386.263C1376.9 375.431 1362.17 356.823 1352.18 344.603C1341.9 332.383 1319.96 309.331 1303.29 292.944C1286.63 276.836 1263.02 255.728 1250.8 246.007C1238.58 236.287 1214.14 218.789 1196.64 207.402C1179.14 195.738 1150.81 179.074 1134.14 170.464C1117.48 161.854 1089.7 149.078 1073.04 142.413C1056.37 135.469 1027.49 125.471 1009.16 119.916C990.825 114.639 963.328 107.418 948.052 104.363C932.776 101.03 903.335 96.8643 882.781 94.6424C862.228 92.4205 825.287 90.7541 800.846 90.7541C776.404 91.0318 741.963 92.6983 724.465 94.9201C706.967 96.8643 679.47 101.308 663.36 104.641V104.641ZM600.034 446.254C610.588 446.254 628.642 447.364 640.307 448.753C652.25 450.42 671.97 455.141 684.191 459.029C696.412 462.918 716.41 471.25 728.631 477.637C740.852 483.748 759.461 495.968 770.293 504.578C781.125 512.91 794.18 525.13 809.178 542.905L832.787 520.131C845.841 507.355 865.005 491.802 875.838 485.414C886.67 479.026 904.723 470.139 916.111 465.695C927.499 461.251 947.497 455.419 960.551 452.641C978.605 449.031 992.492 448.475 1020.27 449.586C1045.26 450.42 1062.76 452.919 1077.21 457.085C1088.59 460.418 1107.48 467.361 1118.87 472.638C1130.26 478.193 1147.75 488.191 1157.75 495.412C1167.75 502.634 1182.75 515.409 1191.08 523.741C1199.69 532.073 1211.91 547.071 1218.86 557.069C1225.52 567.068 1235.8 585.121 1241.35 597.341C1247.19 609.561 1254.69 630.947 1257.74 644.556C1262.19 662.608 1263.85 678.439 1263.85 701.491C1263.85 720.932 1261.91 740.929 1259.41 752.872C1256.91 763.703 1252.19 779.256 1249.13 787.588C1246.08 795.921 1239.41 810.363 1234.13 819.528C1229.13 828.693 1218.02 845.635 1209.41 857.022C1199.69 870.075 1123.31 946.73 1004.71 1062.55C900.835 1164.2 814.455 1247.52 813.067 1248.07C811.678 1248.35 801.401 1240.29 790.013 1230.02C778.904 1219.46 690.857 1135.87 595.034 1043.66C498.933 951.452 412.553 866.465 402.832 854.8C392.556 842.58 379.501 821.75 371.447 805.641C363.948 790.366 355.337 767.869 352.282 755.649C348.116 739.541 346.727 724.543 346.727 700.102C346.727 676.495 348.116 660.664 352.004 645.944C354.782 634.557 360.615 617.338 364.503 607.617C368.391 598.174 377.557 580.677 384.779 568.734C392 556.792 408.387 536.795 421.719 523.464C434.773 510.132 454.771 493.468 466.159 485.969C477.547 478.748 495.6 469.305 506.432 464.862C517.265 460.418 530.874 455.419 536.985 453.752C543.095 452.086 555.594 449.864 564.76 448.753C573.925 447.642 589.757 446.531 600.311 446.254H600.034ZM543.651 532.351C535.318 535.406 521.709 541.794 513.376 546.793C505.044 551.515 489.49 564.29 478.38 575.122C467.548 585.954 453.382 603.173 447.272 614.005C440.884 624.836 433.385 641.223 430.052 650.943C426.719 660.386 423.386 677.328 422.552 688.16C421.164 702.88 421.997 714.544 425.608 730.653C428.385 742.873 435.607 762.87 441.717 775.09C451.716 795.087 457.826 802.586 505.877 850.079C535.04 879.241 615.032 956.728 683.636 1022.27C752.24 1088.1 809.178 1141.7 810.567 1141.7C811.956 1141.7 868.616 1087.26 936.942 1020.88C1004.99 954.507 1079.43 882.018 1101.92 859.799C1130.53 831.748 1147.48 812.585 1157.47 797.309C1165.25 785.089 1174.97 765.092 1178.86 752.872C1184.97 734.264 1186.08 725.654 1186.08 700.102C1186.08 673.995 1184.97 666.219 1178.58 647.333C1174.42 635.113 1166.92 618.171 1161.64 609.839C1156.64 601.507 1143.86 586.509 1133.59 576.511C1123.03 566.512 1106.37 553.737 1096.37 548.182C1086.37 542.627 1071.37 535.962 1063.04 533.74C1054.71 531.24 1038.32 528.185 1026.93 526.796C1013.32 525.13 998.325 525.13 983.882 526.796C971.661 528.463 954.718 532.351 946.386 535.406C938.053 538.461 923.055 546.515 913.056 553.181C903.057 559.569 890.558 569.567 885.281 575.122C880.004 580.677 861.672 602.895 845.008 624.281C828.343 645.944 813.067 663.997 811.678 664.275C810.289 664.83 794.457 646.777 776.959 624.559C759.461 602.34 739.463 579.288 732.519 572.9C725.576 566.79 713.077 557.347 704.745 552.07C696.412 546.515 680.025 538.739 668.637 534.573C657.25 530.407 637.252 525.685 624.198 524.019C611.144 522.353 599.478 521.242 597.812 521.242C596.145 521.519 586.979 522.908 576.98 524.297C566.982 525.685 551.983 529.296 543.651 532.351V532.351Z" fill="#BF47CD"/>
</svg>
