<svg width="1080" height="1079" viewBox="0 0 1080 1079" fill="none" xmlns="http://www.w3.org/2000/svg">
<path d="M496.282 4.66524C503.71 3.01369 511.552 0.949245 513.822 0.536357C516.092 -0.0829748 530.124 -0.0829748 544.775 0.123469C565.41 0.742801 574.903 1.98147 586.046 5.49101C594.094 7.96834 605.03 12.5101 610.808 15.4003C616.38 18.2905 709.858 81.0495 818.194 154.956C994.214 274.694 1017.12 291.003 1032.8 306.899C1045.39 319.492 1052.82 329.402 1059.01 341.169C1063.76 350.046 1069.53 363.465 1071.8 370.897C1074.07 378.329 1076.96 391.335 1078.2 399.799C1079.85 410.328 1080.26 498.686 1079.85 679.531C1079.23 927.264 1078.82 944.605 1075.31 956.166C1073.25 962.979 1068.5 975.572 1064.37 984.036C1060.45 992.5 1053.23 1005.09 1048.49 1011.91C1043.53 1018.72 1033.63 1029.87 1026.2 1036.68C1018.77 1043.49 1005.36 1053.19 996.484 1058.36C987.404 1063.52 972.753 1069.92 947.165 1077.97L700.572 1079V913.432C700.572 773.05 700.16 746.212 697.683 738.367C695.826 733.206 690.667 725.155 685.715 719.787C680.762 714.833 672.714 708.846 667.556 706.369C658.476 702.446 654.762 702.24 539.616 702.24C424.47 702.24 420.756 702.446 411.676 706.369C406.518 708.846 398.47 714.833 393.517 719.787C388.565 725.155 383.406 733.206 381.549 738.367C379.073 746.212 378.66 773.05 378.66 1079L132.067 1077.97L115.558 1072.81C106.479 1069.92 91.6212 1063.52 82.748 1058.36C73.8748 1053.19 60.049 1043.08 52.0012 1035.65C44.1598 1028.21 34.0484 1017.07 29.9213 1010.87C25.5879 1004.68 19.3973 993.739 15.6829 986.72C12.1749 979.494 7.22239 966.488 0 941.715V396.702L4.74614 379.155C7.42875 369.452 13.8257 353.349 19.1909 343.027C26.6197 328.989 33.0167 320.318 46.4297 306.899C62.1126 291.003 84.3988 275.107 258.974 156.195C366.279 83.114 460.376 19.9421 468.424 15.8132C476.472 11.4779 488.853 6.52323 496.282 4.66524Z" fill="#B743D0"/>
</svg>
