<svg width="838" height="838" viewBox="0 0 838 838" fill="none" xmlns="http://www.w3.org/2000/svg">
<path fillRule="evenodd" clipRule="evenodd" d="M417.668 0.0241247C448.752 -0.14478 461.254 0.530838 480.174 3.40222C493.182 5.26017 512.272 8.97607 522.408 11.6785C532.545 14.381 550.114 19.6171 561.264 23.5019C572.414 27.3867 592.179 35.8319 605.187 42.2503C618.195 48.4998 637.623 59.4786 648.266 66.5726C658.909 73.6665 674.958 85.321 683.743 92.415C692.527 99.6779 708.069 113.866 718.375 124C728.511 134.303 743.884 151.7 752.331 162.848C760.609 173.996 771.252 188.86 775.644 195.785C780.036 202.71 789.328 219.938 796.085 233.788C803.012 247.807 812.303 270.609 817.033 284.46C821.595 298.479 827.339 319.254 829.704 330.908C832.069 342.563 834.772 358.44 835.954 366.378C837.137 374.317 837.982 397.795 837.982 418.739C838.15 440.359 837.137 462.992 835.954 471.099C834.772 479.038 832.407 493.057 830.548 502.347C828.69 511.636 824.805 527.175 821.933 536.972C819.23 546.768 813.824 562.308 810.107 571.597C806.39 580.887 798.619 597.947 792.707 609.601C786.794 621.255 775.982 639.666 768.718 650.476C761.453 661.286 749.121 678.007 741.181 687.466C733.241 696.925 718.881 712.295 709.083 721.585C699.285 730.875 682.898 744.725 672.762 752.325C662.626 759.926 647.928 770.06 640.157 774.959C632.555 779.688 616.675 788.471 604.68 794.383C592.855 800.294 575.961 807.895 567.177 811.104C558.392 814.482 544.37 819.043 535.923 821.407C527.477 823.772 511.259 827.488 499.602 829.853C487.945 832.217 469.362 834.751 458.213 835.764C447.063 836.778 429.494 837.622 419.357 837.622C409.221 837.622 391.652 836.778 380.502 835.933C369.352 834.92 348.742 831.879 334.889 829.008C320.867 826.137 298.061 820.056 284.208 815.496C270.187 810.766 248.563 801.814 236.061 795.565C223.56 789.315 206.835 780.026 198.895 775.127C190.955 770.229 178.792 761.953 171.866 756.886C164.939 751.819 152.269 741.684 143.991 734.59C135.713 727.327 121.692 713.984 112.907 704.863C104.291 695.742 91.6209 680.879 85.0323 672.096C78.4438 663.313 68.4766 648.787 62.9017 640.004C57.4957 631.221 48.5421 615.175 43.3051 604.534C37.8991 593.893 30.128 575.989 25.9046 564.841C21.8501 553.694 15.7684 533.594 12.3897 520.081C9.17993 506.569 5.29439 487.145 3.9429 477.011C2.59141 466.877 0.902045 447.115 0.395236 433.096C-0.280509 417.894 -0.111572 398.639 1.07098 384.958C2.25354 372.459 4.28077 355.231 5.63226 346.954C6.98375 338.678 10.0246 324.49 12.2208 315.707C14.417 306.924 19.485 290.54 23.3706 279.392C27.0872 268.245 35.8719 247.807 42.6293 233.788C49.3868 219.938 61.0434 199.332 68.4766 188.184C75.9098 177.036 87.2285 161.497 93.6481 153.558C99.8987 145.789 113.076 131.263 122.874 121.467C132.672 111.67 147.032 98.4955 154.972 92.0772C162.912 85.8277 178.454 74.5111 189.604 67.2482C200.754 59.8164 220.519 48.4998 233.527 42.0814C246.535 35.663 267.146 27.2178 279.14 22.9952C291.135 18.7725 309.042 13.5365 318.84 11.0029C328.639 8.63826 346.039 5.09126 357.696 3.40222C373.407 1.03755 388.611 0.193029 417.668 0.0241247V0.0241247ZM358.54 53.9047C351.952 55.087 337.592 58.1273 326.442 60.9987C315.293 63.7012 297.385 69.4439 286.742 73.6665C276.099 77.8892 259.713 85.1521 250.421 89.8814C241.13 94.6107 225.925 103.563 216.634 109.812C207.342 115.893 193.996 125.52 187.07 131.094C180.143 136.837 165.615 150.349 154.803 161.328C144.16 172.476 129.969 188.691 123.55 197.474C116.961 206.257 108.177 219.262 103.784 226.187C99.5609 233.113 91.4519 248.314 85.877 259.968C80.3021 271.623 72.7 290.202 68.9834 301.35C65.2668 312.498 60.3676 330.402 58.0025 341.043C55.6374 351.684 52.9344 368.743 51.7519 379.046C50.5693 390.532 50.2315 409.111 50.7383 428.028C51.414 446.27 53.1034 466.539 55.1306 478.7C56.9889 489.848 60.8744 506.907 63.5774 516.703C66.2804 526.5 69.8281 537.816 71.3485 542.039C72.8689 546.262 76.7545 556.058 80.1332 563.997C83.5119 571.935 90.4383 585.954 95.5064 595.244C100.574 604.534 109.021 618.215 114.089 625.647C119.326 633.079 128.111 644.902 133.686 651.827C139.261 658.752 151.424 672.096 160.885 681.385C170.176 690.675 185.381 704.019 194.672 711.113C203.964 718.038 218.83 728.341 227.615 733.746C236.399 739.151 250.928 747.089 259.713 751.143C268.497 755.366 283.364 761.615 292.655 764.993C301.947 768.54 319.009 773.776 330.666 776.648C342.322 779.519 360.736 783.066 371.548 784.417C382.529 785.768 403.646 786.951 418.513 786.951C433.379 786.951 454.834 785.768 466.153 784.417C477.64 782.897 494.872 779.857 504.67 777.323C514.468 774.959 530.011 770.398 539.302 767.189C548.594 763.98 564.136 757.73 573.934 753.339C583.732 748.947 599.612 740.333 609.411 734.421C619.209 728.51 633.231 719.051 640.664 713.477C647.928 707.903 658.571 699.12 664.315 694.053C669.89 688.986 680.195 678.852 687.121 671.42C694.048 664.157 703.846 653.009 708.745 646.929C713.644 640.848 721.753 629.701 726.821 622.269C731.721 614.837 739.492 602 744.053 593.555C748.614 585.11 755.541 570.922 759.426 561.97C763.312 552.849 769.055 536.803 772.265 526.5C775.475 516.028 779.53 499.813 781.388 490.523C783.246 481.233 785.78 464.512 786.963 453.364C788.145 441.034 788.652 422.961 787.976 406.915C787.47 392.558 785.78 372.797 784.26 363C782.739 353.204 779.698 338.002 777.502 329.219C775.306 320.436 770.745 305.573 767.535 296.283C764.325 286.993 758.244 271.792 753.851 262.502C749.459 253.212 742.026 238.686 737.127 230.41C732.058 222.134 722.091 207.27 714.827 197.474C707.563 187.677 694.048 171.8 684.756 162.173C675.296 152.545 661.95 140.046 655.023 134.134C648.097 128.223 633.569 117.751 622.926 110.488C612.283 103.394 593.531 92.7528 581.536 86.8411C569.542 81.0984 553.493 74.0044 546.06 71.133C538.626 68.2616 524.605 64.039 514.806 61.5054C505.008 58.9718 491.324 55.9316 484.398 54.7492C477.471 53.398 463.788 51.54 453.989 50.5266C444.191 49.6821 427.128 48.8376 415.979 49.0065C404.829 49.1754 389.962 49.851 383.036 50.6955C376.11 51.3711 365.129 52.8913 358.54 53.9047V53.9047ZM419.357 261.657C607.383 261.657 620.729 261.826 626.304 264.698C629.514 266.218 633.906 270.272 636.103 273.481C638.637 277.366 639.988 281.926 639.988 286.993C639.988 292.06 638.637 296.621 636.103 300.505C633.906 303.715 629.514 307.768 626.304 309.289C620.729 312.16 607.383 312.329 419.357 312.329C231.331 312.329 217.985 312.16 212.41 309.289C209.201 307.768 204.808 303.715 202.612 300.505C200.078 296.621 198.726 292.06 198.726 286.993C198.726 281.926 200.078 277.366 202.612 273.481C204.808 270.272 209.201 266.218 212.41 264.698C217.985 261.826 231.331 261.657 419.357 261.657ZM418.851 393.403C586.604 393.403 622.081 393.741 625.798 395.768C628.5 396.95 632.555 400.328 635.089 403.368C638.975 407.591 639.819 410.125 639.819 417.556C639.819 423.412 638.693 428.197 636.44 431.913C634.582 434.954 629.852 438.838 625.798 440.696C618.871 443.906 614.479 444.074 419.357 444.074C224.236 444.074 219.844 443.906 212.748 440.696C208.863 438.838 204.132 434.954 202.274 431.913C200.078 428.366 198.895 423.299 198.895 417.894C198.726 412.151 199.909 407.929 202.105 404.551C203.964 402.017 208.018 398.301 211.059 396.612C216.465 393.572 223.898 393.403 418.851 393.403ZM420.202 525.318C619.716 525.318 623.939 525.318 629.345 528.527C632.217 530.385 635.934 534.269 637.285 536.972C638.637 539.674 639.819 545.586 639.819 550.147C639.819 555.214 638.637 559.774 636.44 563.152C634.582 565.855 630.866 569.571 628.332 571.091C624.108 573.962 610.931 574.131 419.357 574.131C217.309 574.131 214.944 574.131 209.876 570.753C207.173 568.895 203.457 565.179 201.936 562.645C200.078 559.943 198.895 554.707 198.895 549.64C198.895 543.897 200.078 539.506 202.443 535.959C204.47 533.256 208.356 529.54 211.228 528.02C216.127 525.486 233.527 525.149 420.202 525.318V525.318Z" fill="#B743D0"/>
</svg>
