<svg width="787" height="1080" viewBox="0 0 787 1080" fill="none" xmlns="http://www.w3.org/2000/svg">
<path fill-rule="evenodd" clip-rule="evenodd" d="M392.847 0.0170383C403.517 -0.139784 413.559 0.80115 419.208 2.21255C424.072 3.46713 432.545 6.7604 437.879 9.42638C443.685 12.406 451.687 18.3652 457.179 24.0108C462.357 29.3428 468.947 37.8112 471.614 42.9863C474.438 48.1615 477.733 56.6299 478.989 61.805C480.401 66.9802 481.499 75.2917 481.499 89.2489H539.24C591.647 89.2489 597.138 89.4058 600.59 91.9149C602.787 93.4831 605.454 97.09 606.553 99.9128C607.651 102.579 608.592 110.89 608.592 131.591L738.039 132.375L749.807 138.648C756.24 142.098 764.87 148.528 769.107 152.762C773.343 157.153 778.364 164.367 780.561 168.915C782.601 173.306 785.111 180.363 785.896 184.597C786.994 189.458 787.308 330.755 786.68 1027.83L782.914 1037.24C780.718 1042.41 776.167 1050.1 772.559 1054.49C769.107 1058.72 762.046 1065.15 756.868 1068.76C750.749 1072.84 743.531 1075.97 736.47 1077.7C726.272 1080.21 703.05 1080.37 52.3627 1079.58L43.7329 1076.13C39.0257 1074.09 31.4943 1069.86 27.2578 1066.57C22.8645 1063.27 16.7452 1057.16 13.4501 1052.92C10.312 1048.53 6.07559 1041.16 0.583902 1027.83L0.113185 611.467C-0.200626 306.134 0.113185 192.595 1.36843 185.695C2.46677 180.52 5.29106 172.365 7.80155 167.66C10.312 162.955 15.333 155.898 18.9418 152.135C22.7076 148.371 28.5131 143.509 31.965 141.314C35.4169 139.118 42.3207 135.982 47.3417 134.414C55.3439 131.905 62.5616 131.591 178.672 131.591V120.143C178.672 114.027 179.142 106.343 179.77 103.363C180.554 100.383 183.065 95.9923 189.969 89.2489H305.765V80.1532C305.765 75.2917 306.863 66.9802 308.275 61.805C309.531 56.6299 312.826 48.1615 315.65 42.9863C318.317 37.8112 324.907 29.3428 330.085 24.1677C335.263 18.9925 343.736 12.406 348.914 9.74002C354.092 6.91722 362.251 3.62395 366.958 2.36937C371.979 1.11479 382.806 0.0170383 392.847 0.0170383V0.0170383ZM371.665 51.2979C367.272 55.0617 363.192 60.5504 360.839 65.8824C357.858 72.7826 357.23 76.2327 357.858 84.5443C358.171 90.1899 359.584 97.2469 361.153 100.226C362.565 103.206 366.33 108.381 369.626 111.831C372.921 115.125 378.412 119.202 381.864 120.77C385.316 122.338 390.651 123.75 393.632 123.75C396.613 123.75 401.948 122.338 405.4 120.927C408.852 119.359 414.5 115.281 417.795 111.831C421.247 108.538 425.327 102.579 427.053 98.6583C428.936 94.4241 430.034 88.1512 430.034 82.976C430.034 77.3304 428.779 71.3712 426.425 65.8824C424.072 60.5504 419.992 55.0617 415.599 51.2979C411.676 48.0047 405.4 44.2409 401.477 42.9863C397.555 41.5749 393.632 40.634 392.847 40.7908C391.906 40.7908 388.454 41.8886 385.002 42.9863C381.55 44.2409 375.588 48.0047 371.665 51.2979V51.2979ZM55.9715 187.263L52.6765 193.536C52.3627 827.882 52.8334 1014.81 53.461 1018.11C54.2456 1021.24 57.0699 1026.42 59.7373 1029.4C63.6599 1033.63 66.9549 1035.36 72.7604 1036.61C77.9383 1037.71 187.929 1038.02 398.339 1037.71C715.759 1037.24 716.073 1037.24 721.564 1033.95C724.546 1032.22 728.468 1028.77 730.351 1026.11C733.489 1021.56 733.489 1019.99 734.744 834.939C735.529 732.22 735.843 545.915 735.372 420.928L734.744 193.536C728.625 182.558 724.859 178.481 721.564 176.756C716.543 174.09 711.679 173.933 661.47 173.933C618.948 173.933 607.023 174.403 607.023 175.972C607.023 176.913 604.984 182.088 602.63 187.263C599.963 192.752 595.255 199.181 591.176 202.788C587.41 206.238 581.134 210.473 577.211 212.198C570.308 215.491 568.111 215.491 395.515 215.961C225.9 216.275 220.879 216.118 212.72 213.295C208.327 211.57 201.109 207.179 196.873 203.416C191.852 199.025 187.458 193.222 184.634 187.263C182.28 182.088 180.241 176.913 180.241 175.972C180.241 174.403 168.316 173.933 125.638 173.933C72.1328 173.933 71.0344 174.09 65.3858 177.54C62.0908 179.422 57.8544 183.813 55.9715 187.263V187.263ZM256.34 310.368C257.124 310.368 258.536 311.152 259.478 312.093C260.576 313.191 262.145 313.191 264.97 311.78C268.578 309.898 269.52 310.368 279.405 319.935C285.21 325.423 290.074 330.598 290.074 331.539C290.231 332.48 272.03 350.829 249.75 372.313C227.312 393.955 206.601 414.028 203.463 417.008C198.599 421.555 197.186 422.183 195.147 420.614C193.421 419.203 191.852 419.046 189.655 420.144C186.988 421.399 184.477 419.987 173.494 411.205C166.433 405.403 153.881 395.052 145.721 388.309C137.562 381.409 130.659 374.979 130.502 374.038C130.345 373.097 135.366 366.668 141.642 359.767C152.155 348.319 153.41 347.378 155.92 349.574C158.117 351.456 159.058 351.613 161.569 350.044C164.236 348.163 165.962 349.103 176.632 357.729C183.379 363.061 189.498 367.922 190.439 368.549C191.381 369.334 205.189 357.415 223.39 340.165C240.649 323.855 255.398 310.368 256.34 310.368V310.368ZM679.984 378.586V419.36L512.096 419.674C381.707 419.987 343.736 419.674 342.167 418.105C340.755 416.851 340.127 410.735 339.97 398.032C339.813 387.995 340.284 379.37 341.069 378.9C341.853 378.272 418.423 377.959 679.984 378.586ZM256.34 484.441C257.124 484.441 258.693 485.225 259.792 486.323C261.361 488.048 262.145 487.891 263.871 486.323C265.283 485.068 267.009 484.755 268.421 485.539C269.677 486.166 275.168 490.714 280.346 495.419C285.681 500.123 289.918 505.142 289.918 506.396C289.761 507.651 272.187 525.685 250.691 546.386C229.195 567.086 208.327 586.689 204.561 589.983C199.226 594.374 196.873 595.471 195.147 594.217C193.578 593.171 191.747 593.171 189.655 594.217C186.988 595.471 184.948 594.53 177.416 588.571C172.552 584.494 159.843 574.143 149.173 565.361C138.661 556.736 130.031 548.895 130.031 547.954C130.031 547.013 135.366 540.897 141.799 534.311C151.841 523.804 153.881 522.392 156.077 524.117C158.117 525.685 159.215 525.685 161.569 524.117C164.236 522.235 165.962 523.176 176.632 531.958C183.379 537.447 189.498 542.309 190.439 542.936C191.224 543.563 206.13 530.547 223.39 514.237C240.649 497.928 255.398 484.441 256.34 484.441V484.441ZM679.984 552.659L680.769 594.217L341.069 593.433L340.755 574.771C340.598 564.42 340.755 555.011 341.069 553.913C341.696 552.188 372.45 551.875 679.984 552.659ZM256.34 658.514C257.124 658.514 258.693 659.298 259.792 660.396C261.361 662.121 262.145 661.964 264.028 660.396C266.068 658.514 267.009 658.514 269.363 660.396C271.089 661.494 276.267 666.198 281.131 670.746C286.152 675.137 289.918 679.842 289.604 680.939C289.447 681.88 269.049 702.424 244.101 726.418C219.31 750.255 198.599 769.858 197.814 769.858C197.186 769.858 195.617 769.23 194.362 768.446C192.95 767.505 191.067 767.662 189.498 768.76C187.458 770.328 186.046 770.015 183.065 767.505C181.025 765.78 168.159 755.116 154.665 743.982C141.014 732.848 130.031 722.811 130.031 722.027C130.188 721.243 134.895 715.597 140.544 709.481C146.349 703.365 151.998 698.347 153.096 698.19C154.194 697.876 156.234 698.504 157.489 699.288C159.058 700.333 160.104 700.333 160.627 699.288C161.098 698.504 162.667 697.719 164.079 697.719C165.648 697.876 172.395 702.424 191.224 718.106L198.599 711.833C202.835 708.383 217.113 695.053 230.45 682.037C243.787 669.178 255.398 658.671 256.34 658.514V658.514ZM680.769 727.516V768.289L341.069 767.505L340.755 749.628C340.598 739.748 340.755 730.652 341.069 729.554C341.696 727.829 372.92 727.516 680.769 727.516V727.516ZM256.34 832.587C257.124 832.587 258.693 833.371 259.792 834.468C261.361 836.194 262.145 836.037 264.028 834.468C266.068 832.587 267.009 832.587 269.52 834.468C271.089 835.566 276.267 840.271 280.974 844.976C285.681 849.523 289.447 854.228 289.447 855.326C289.29 856.424 269.049 876.81 244.101 900.647C219.31 924.484 198.599 943.93 197.814 943.93C197.186 943.93 195.617 943.303 194.362 942.519C192.95 941.578 191.067 941.735 189.655 942.676C187.929 943.93 186.36 943.774 184.006 942.205C182.28 940.951 169.414 930.444 155.293 918.839C141.328 907.234 130.031 896.884 130.345 895.786C130.659 894.845 135.523 889.043 141.485 882.927C147.29 876.811 153.096 871.792 154.351 871.792C155.606 871.792 157.176 872.733 157.646 873.831C158.431 875.399 158.901 875.399 160.314 873.831C161.255 872.733 162.981 871.792 164.079 871.792C165.178 871.792 171.768 876.34 191.224 892.179L196.245 888.259C199.069 886.22 213.348 872.733 228.097 858.619C242.689 844.348 255.398 832.587 256.34 832.587V832.587ZM680.769 901.588V942.362L341.069 941.578L340.755 923.7C340.598 913.821 340.755 904.725 341.069 903.627C341.696 901.902 372.92 901.588 680.769 901.588V901.588Z" fill="#F85548"/>
</svg>
