<svg width="1080" height="1071" viewBox="0 0 1080 1071" fill="none" xmlns="http://www.w3.org/2000/svg">
<path fillRule="evenodd" clipRule="evenodd" d="M552.889 0.0412485C587.76 0.471813 610.792 1.76351 627.151 4.3469C640.066 6.49972 663.529 11.4512 678.812 15.3263C694.095 19.2014 716.481 26.0904 728.32 30.3961C740.159 34.917 758.025 42.2366 768.142 46.7575C778.259 51.2785 795.695 59.8897 806.888 66.1329C818.081 72.3761 834.01 81.8485 842.405 87.4459C850.8 93.0432 867.59 105.53 880.074 115.433C892.559 125.336 912.793 143.635 925.278 156.121C937.762 168.823 954.552 187.337 962.516 197.24C970.481 207.358 983.611 225.227 991.576 237.067C999.325 248.908 1012.24 271.297 1020.42 286.582C1028.38 302.082 1038.72 324.256 1043.45 336.097C1047.97 347.938 1054.86 367.313 1058.3 379.153C1061.75 390.994 1067.13 412.738 1070.14 427.592C1073.16 442.447 1076.82 466.128 1078.32 480.336C1079.83 496.913 1080.48 523.393 1079.61 554.609C1078.75 589.7 1077.25 609.29 1074.02 625.652C1071.65 638.138 1068.21 655.146 1066.27 663.326C1064.33 671.722 1060.24 686.146 1057.23 695.619C1054.21 705.091 1047.97 722.314 1043.45 733.939C1038.72 745.349 1030.11 764.724 1024.08 776.995C1017.84 789.051 1007.5 807.565 1000.83 818.33C994.374 829.094 981.674 847.393 972.633 859.233C963.808 871.074 945.296 892.171 931.735 906.38C918.174 920.373 897.295 939.964 885.456 949.652C873.617 959.555 852.737 974.84 839.176 984.097C825.615 993.139 799.785 1007.78 782.134 1016.39C763.407 1025.65 734.778 1037.27 714.329 1044.16C694.741 1050.62 669.126 1057.94 657.287 1060.31C645.448 1062.68 623.707 1066.33 608.855 1068.27C587.975 1070.86 570.755 1071.5 532.44 1070.64C494.985 1069.78 476.689 1068.49 457.101 1065.04C442.894 1062.46 423.521 1058.37 414.05 1056C404.579 1053.63 387.574 1048.68 376.381 1045.02C365.187 1041.36 344.738 1033.61 331.177 1027.58C317.616 1021.77 299.105 1012.94 290.279 1008.21C281.454 1003.47 263.588 992.493 250.457 983.882C237.327 975.27 218.6 961.708 208.483 953.742C198.366 945.561 179.423 928.339 166.508 915.422C153.378 902.29 136.803 884.206 129.7 875.379C122.381 866.553 111.188 851.483 104.73 842.011C96.7661 830.385 92.0305 820.913 90.3085 812.947C88.3712 804.121 88.1559 798.093 89.878 789.266C91.1695 782.808 95.044 773.336 98.2728 768.384C101.502 763.433 107.959 756.543 112.695 753.099C117.43 749.439 125.18 745.564 129.915 744.057C134.651 742.55 145.844 741.904 154.669 742.335C168.015 742.765 172.535 744.057 180.93 749.439C188.034 753.96 196.859 763.433 208.698 779.579C218.384 792.496 239.049 815.961 254.547 831.246C270.261 846.747 292.001 865.692 303.194 873.872C314.388 881.838 340.003 896.477 360.237 906.595C383.484 918.005 405.87 927.478 421.584 932.214C435.145 936.304 453.872 941.04 463.128 942.978C472.169 944.916 489.604 947.499 501.658 948.791C515.004 950.298 537.606 950.728 558.27 950.082C577.212 949.221 599.383 947.714 607.778 946.423C616.173 945.131 632.963 941.686 645.448 938.457C657.932 935.443 677.951 929.2 690.22 924.464C702.275 919.943 719.28 912.839 727.675 908.533C736.285 904.227 750.707 896.262 759.532 890.88C768.358 885.498 784.717 874.518 795.695 866.337C806.457 858.372 825.4 841.795 837.669 829.739C849.939 817.468 865.868 799.815 872.971 790.343C880.074 780.87 890.191 766.447 895.573 758.05C900.954 749.87 910.21 733.293 916.237 721.452C922.049 709.612 930.444 690.667 934.533 679.472C938.838 668.278 944.65 649.333 947.664 637.492C950.677 625.652 954.552 605.846 956.489 593.359C958.211 580.873 959.718 556.761 959.718 539.539C959.718 522.316 958.642 499.712 957.566 488.947C956.274 478.399 953.476 460.315 951.108 449.12C948.955 437.926 944.005 419.411 940.13 408.217C936.471 397.022 929.152 378.077 923.986 366.237C918.605 354.396 908.918 335.451 902.245 324.256C895.572 313.062 884.81 296.485 878.137 287.658C871.679 278.832 860.486 265.269 853.383 257.519C846.279 249.769 831.857 235.56 821.095 225.657C810.332 215.754 789.883 199.823 775.676 190.351C761.469 180.663 738.222 167.316 724.015 160.427C709.809 153.538 687.422 144.496 674.507 140.19C661.592 135.884 644.156 130.933 635.761 129.211C627.366 127.488 610.577 124.474 598.092 122.967C585.607 121.245 562.36 119.738 546.431 119.738C530.502 119.738 506.179 121.03 492.618 122.752C479.057 124.474 458.177 128.35 446.338 131.363C434.499 134.377 416.633 139.544 406.516 143.204C396.399 146.649 380.04 153.322 369.923 158.059C359.806 162.579 342.371 172.052 331.177 178.726C319.984 185.615 303.41 196.594 294.584 203.268C285.759 209.726 268.323 225.011 256.054 236.852C244 248.908 229.578 264.193 224.412 271.082C219.245 277.756 215.586 283.353 216.447 283.353C217.523 283.353 224.196 281.415 231.515 279.047C239.264 276.679 250.888 274.742 258.422 274.742C266.816 274.742 275.211 276.249 280.593 278.832C285.328 280.985 292.432 285.506 296.521 288.95C300.611 292.395 306.208 300.145 309.437 305.957C313.957 314.784 315.033 319.736 315.033 332.868C315.033 346.861 314.172 350.521 308.576 360.639C304.916 366.882 298.674 374.848 294.584 378.077C290.494 381.522 284.037 385.181 280.593 386.688C277.149 387.98 236.25 400.251 190.186 414.029C115.278 435.988 104.946 438.571 93.322 437.926C84.4966 437.28 77.178 435.127 70.0746 431.252C64.478 428.023 55.8679 420.272 51.1323 414.245C46.1815 408.001 41.2306 400.466 40.1543 397.452C39.0781 394.439 29.3917 353.32 18.629 305.957C2.91546 236.421 -0.74385 217.476 0.117165 208.004C0.762926 200.469 3.56122 191.858 7.43579 184.538C10.8798 178.295 17.5527 170.33 22.2883 166.67C27.0239 163.225 36.2798 158.92 42.7374 156.982C50.917 154.829 58.0204 154.183 65.339 155.26C71.1509 156.121 80.4068 158.704 85.5729 161.288C90.739 163.871 98.0576 169.468 101.502 173.559C105.161 177.649 109.897 184.969 112.049 189.705C113.986 194.441 115.924 200.039 115.924 202.191C115.924 204.129 116.569 206.282 117.43 206.928C118.507 207.358 126.902 198.316 136.588 186.906C146.059 175.496 163.495 157.197 175.334 146.218C186.957 135.239 203.317 121.03 211.712 114.356C220.106 107.682 236.035 96.0572 247.228 88.5223C258.422 81.2027 276.503 70.2233 287.05 64.4107C297.598 58.3828 315.679 49.5562 326.872 44.3894C338.065 39.4379 361.313 30.6113 378.533 25.014C395.753 19.2014 422.875 12.0971 438.804 8.86783C454.733 5.85387 475.613 2.40935 485.084 1.54823C494.555 0.471813 525.121 -0.174034 552.889 0.0412485V0.0412485ZM571.185 243.526C592.495 244.387 607.994 246.109 623.922 249.769C636.407 252.567 656.641 258.811 669.126 263.547C681.61 268.498 700.337 277.971 711.1 284.645C721.863 291.318 734.347 299.714 739.083 303.374C743.819 307.034 755.873 317.798 765.559 327.486C775.461 336.958 789.237 352.458 796.125 361.931C802.798 371.403 812.915 387.334 818.296 397.452C823.678 407.571 830.996 423.502 834.44 432.974C837.884 442.447 842.835 459.023 845.203 469.572C847.786 480.336 850.584 500.142 851.876 513.705C853.168 529.205 853.168 546.858 851.876 561.067C850.8 573.554 848.001 591.422 845.849 600.894C843.481 610.367 838.746 626.298 834.871 636.416C831.212 646.534 823.893 662.896 818.512 673.014C813.13 683.132 803.229 698.848 796.556 708.32C789.883 717.577 775.03 734.154 763.837 744.918C752.644 755.682 733.271 771.398 720.787 779.579C708.302 787.759 688.068 798.954 675.583 804.121C663.099 809.288 643.726 815.961 632.532 818.76C621.339 821.559 600.46 825.003 586.253 826.295C567.311 828.017 553.534 828.017 534.592 826.295C520.385 825.003 499.506 821.559 488.313 818.76C477.119 815.961 457.747 809.288 445.262 804.121C432.777 798.954 412.543 787.975 400.059 779.794C385.206 769.891 369.492 756.974 354.64 742.12C340.864 728.341 326.657 711.334 318.477 698.848C310.944 687.653 301.688 671.722 297.598 663.326C293.723 655.146 287.696 640.076 284.252 629.957C280.808 619.839 276.072 603.478 273.92 593.359C270.691 578.936 269.83 566.234 269.83 533.08C269.83 494.76 270.476 489.163 275.642 468.496C278.655 456.009 284.683 437.28 288.988 426.516C293.293 415.967 301.257 399.39 306.854 389.918C312.235 380.445 322.352 365.375 329.025 356.549C335.698 347.722 349.904 332.437 360.452 322.534C370.999 312.631 388.865 298.423 400.059 290.888C411.252 283.138 431.27 272.589 444.186 266.991C457.101 261.394 477.119 254.505 488.313 251.706C499.506 248.908 516.08 245.678 524.906 244.602C533.731 243.526 554.611 243.095 571.185 243.526V243.526ZM511.56 338.465C508.331 341.91 504.672 347.292 503.596 350.736C502.089 354.396 501.228 388.841 501.228 449.12C501.228 522.962 501.873 543.199 504.241 548.796C505.748 552.456 510.484 558.699 514.358 562.574C519.955 567.741 527.058 570.97 544.278 575.922C556.763 579.366 594.002 589.269 627.151 597.665C677.736 610.797 689.144 612.95 698.185 611.874C703.997 611.013 712.176 608.429 716.266 605.631C720.356 603.047 726.168 596.589 729.181 591.207C733.486 583.887 734.778 578.72 734.563 569.678C734.563 563.22 733.271 555.47 731.549 552.456C730.042 549.442 726.383 544.275 723.154 541.046C720.141 537.601 715.19 533.511 712.176 532.004C709.163 530.497 679.458 522.101 645.878 513.49L585.177 497.559C585.177 361.931 584.961 355.903 581.087 348.583C578.934 344.062 574.629 338.25 571.831 335.666C569.248 333.083 563.221 329.423 558.701 327.701C554.395 325.763 547.077 324.256 542.556 324.256C538.251 324.256 530.718 326.194 525.982 328.347C521.246 330.5 514.789 335.021 511.56 338.465V338.465Z" fill="#F85548"/>
</svg>
