<svg width="1080" height="1080" viewBox="0 0 1080 1080" fill="none" xmlns="http://www.w3.org/2000/svg">
<path fillRule="evenodd" clipRule="evenodd" d="M838.119 0.304147L859.888 6.8331C871.982 10.2185 891.333 17.2311 903.427 22.551C915.521 27.629 934.871 38.2688 946.965 46.2487C959.059 54.2285 977.2 68.7373 987.843 78.8934C998.244 88.8078 1013.72 106.218 1022.19 117.584C1030.66 128.949 1042.02 146.359 1047.35 156.274C1052.43 166.188 1060.41 185.775 1065 199.8C1069.6 213.825 1074.92 233.412 1076.61 243.326C1079.27 258.077 1080 314.903 1080 539.548C1080 802.882 1079.76 818.842 1075.4 839.396C1072.99 851.487 1067.66 870.348 1063.55 881.713C1059.68 893.078 1053.63 907.829 1050.49 914.358C1047.1 920.887 1038.4 935.638 1031.14 947.003C1023.16 959.093 1007.68 977.713 993.165 991.98C979.861 1005.28 960.511 1021.72 950.594 1028.49C940.676 1035.26 927.615 1043 921.568 1046.15C915.521 1049.05 901.975 1055.09 891.333 1059.45C880.69 1063.56 864.484 1068.88 855.05 1071.05C845.617 1073.23 828.927 1076.13 817.559 1077.58C804.981 1079.03 698.069 1080 539.395 1080C380.479 1080 273.568 1079.03 260.022 1077.58C248.17 1076.13 227.852 1072.26 215.274 1069.12C201.971 1065.49 179.96 1057.03 163.27 1048.56C147.306 1040.83 126.746 1028.49 117.312 1021.48C107.879 1014.47 93.3662 1001.65 84.6585 992.947C75.9507 984.242 63.131 969.733 56.3583 960.302C49.3438 950.872 38.701 934.187 32.8959 922.821C26.8488 911.456 18.6249 892.595 14.5129 880.504C10.4009 868.413 5.56327 850.036 3.62822 839.396C0.483763 822.953 0 778.459 0 538.338C0 289.271 0.483763 254.208 3.8701 236.072C6.04703 224.707 11.1265 206.329 14.9966 194.964C19.1086 183.599 25.6394 167.881 29.7514 159.901C33.6215 151.921 42.0873 137.896 48.1344 128.465C54.1814 119.276 68.4524 101.866 79.8208 90.0168C91.1892 78.168 108.605 62.4501 118.522 54.9539C128.439 47.6995 147.064 36.3343 159.642 29.8054C172.219 23.5182 191.328 15.5384 201.971 12.153C212.614 9.00942 228.336 4.65678 237.044 2.72228C250.105 0.0623339 301.626 -0.421293 838.119 0.304147V0.304147ZM481.344 288.062L715.969 289.271C703.391 267.75 676.542 220.838 648.484 171.266L597.447 81.3116H363.548L481.344 288.062ZM755.879 187.226L813.931 289.271H994.132C994.132 274.278 992.439 261.462 990.262 251.064C988.085 240.908 983.731 225.432 980.587 216.727C977.2 208.022 970.186 193.513 964.623 184.082C959.059 174.651 946.24 158.692 936.323 148.052C926.164 137.654 910.925 124.596 902.217 118.793C893.51 113.231 880.448 105.493 873.191 101.866C865.935 98.2385 849.487 92.435 836.909 89.2914C816.833 83.9715 806.916 83.2461 755.395 82.037C717.662 81.0697 697.102 81.5534 697.344 83.0043C697.586 84.2133 723.951 131.125 755.879 187.226V187.226ZM210.437 100.657C203.18 103.8 190.602 110.329 182.62 114.924C174.638 119.518 158.19 133.06 146.096 145.15C133.518 157.966 119.973 174.41 114.168 184.082C108.605 193.513 101.59 207.538 98.4457 215.518C95.3012 223.498 90.9474 238.006 88.7704 247.437C86.5935 257.11 84.6585 270.409 84.6585 277.18V289.271C315.171 289.271 381.931 288.304 381.689 287.336C381.205 286.127 355.324 240.425 324.121 185.533C268.73 88.566 267.037 86.1478 260.022 86.1478C256.152 86.3896 246.235 88.3241 238.253 90.7423C230.271 93.1604 217.693 97.513 210.437 100.657V100.657ZM83.6909 812.796C94.0918 850.761 101.59 870.106 107.879 881.713C114.168 893.078 124.085 908.554 130.374 916.292C136.421 924.272 147.548 935.638 154.804 941.925C162.06 948.212 176.331 958.368 186.249 964.413C196.166 970.7 214.307 978.922 226.159 983.033C238.253 986.902 258.329 991.496 270.907 992.947C287.355 994.882 369.111 995.365 553.908 994.882L813.931 993.915C845.859 985.209 862.065 979.406 870.773 975.537C879.48 971.668 893.51 963.688 902.217 957.884C910.925 952.081 924.954 940.474 933.42 932.01C941.644 923.789 953.254 909.763 959.059 901.058C964.865 892.353 973.088 878.086 976.959 868.897C981.071 859.95 986.876 843.749 989.778 832.625C995.1 813.038 995.1 809.895 995.825 593.23L996.551 373.906H81.9978L83.6909 812.796ZM472.394 494.812C479.893 494.812 489.084 496.021 492.954 497.472C496.582 498.923 540.847 527.215 591.4 560.585C641.953 593.714 687.669 625.391 693.232 630.953C700.73 638.691 703.875 644.494 706.293 654.409C708.954 665.774 708.712 669.643 705.568 681.008C702.907 690.197 698.795 696.968 692.506 703.013C687.427 708.091 641.953 739.043 591.4 772.414C540.847 805.784 496.582 834.076 492.954 835.527C489.084 836.978 480.134 838.187 472.878 838.187C464.654 838.187 456.188 836.494 450.625 833.592C445.545 830.932 438.531 825.854 434.903 821.985C431.274 818.358 426.679 811.104 424.744 806.026C421.357 798.288 420.873 779.184 420.873 665.774C420.873 543.417 421.357 533.986 425.469 525.039C427.888 519.719 432.968 512.464 436.838 509.079C440.708 505.452 447.239 500.857 451.109 498.923C455.221 496.747 464.412 495.054 472.394 494.812V494.812Z" fill="#B743D0"/>
</svg>
