<svg width="1021" height="1080" viewBox="0 0 1021 1080" fill="none" xmlns="http://www.w3.org/2000/svg">
<path fillRule="evenodd" clipRule="evenodd" d="M410.847 0.0284899C440.103 -0.207514 454.967 0.972504 481.628 5.45657C500.031 8.76062 525.276 14.6607 537.545 18.6728C549.813 22.9208 568.924 30.2369 580.013 34.957C591.102 39.6771 611.629 50.5333 625.785 58.7934C639.941 67.2895 661.175 82.1577 672.972 92.0699C684.769 101.746 703.408 119.446 714.497 131.01C725.586 142.575 741.629 162.163 750.123 174.435C758.853 186.707 771.357 207.004 777.727 219.276C784.334 231.548 793.535 251.136 798.018 262.936C802.501 274.501 808.871 294.797 812.174 307.777C815.477 320.757 819.96 342.47 821.847 356.158C823.735 369.846 825.387 394.863 825.387 411.619C825.387 428.375 824.207 451.267 823.027 462.36C821.612 473.452 817.365 495.164 813.59 510.74C809.815 526.317 803.444 547.085 799.67 556.761C796.13 566.437 787.401 585.317 780.795 598.534C774.188 611.986 761.92 633.226 737.854 668.863L743.517 674.763C746.584 678.067 800.141 737.068 862.193 805.745C924.244 874.422 983.464 940.031 993.609 951.359C1003.52 962.923 1013.43 975.667 1015.79 979.679C1017.91 983.927 1020.03 994.784 1020.74 1003.99C1021.45 1015.32 1020.74 1024.28 1018.15 1032.31C1016.02 1039.15 1009.89 1049.06 1003.99 1055.91C998.328 1062.28 989.126 1070.07 983.228 1072.66C977.565 1075.5 968.128 1078.56 962.229 1079.51C956.331 1080.45 945.714 1079.98 938.636 1078.56C930.378 1076.91 921.177 1072.9 913.391 1067.24C906.313 1062.04 866.203 1019.8 821.376 969.767C777.727 921.151 717.8 854.361 634.278 762.084L623.189 768.456C616.819 771.996 602.427 779.548 590.63 785.212C579.069 790.877 557.127 799.609 542.263 804.565C527.399 809.521 506.873 815.421 496.964 817.309C486.818 819.433 467.708 822.265 454.495 823.681C441.047 825.097 414.386 825.805 394.803 825.097C372.39 824.389 349.74 822.029 333.46 818.725C319.304 815.893 296.418 809.993 282.734 805.509C269.05 801.025 248.523 792.765 236.726 787.1C225.165 781.672 205.347 770.816 193.078 763.028C180.81 755.24 163.35 743.204 154.149 735.888C145.183 728.572 127.016 711.579 114.04 697.891C101.063 684.439 83.368 663.199 74.6383 650.926C65.9087 638.654 51.7525 614.818 43.4948 598.062C35.237 581.069 25.0918 557.233 20.8449 544.961C16.834 532.689 10.9356 509.796 7.63253 494.22C3.62162 475.34 1.26226 454.099 0.318514 430.499C-0.389294 409.731 0.0825776 385.186 1.73413 370.79C3.14975 357.574 5.98098 338.458 8.1044 328.309C10.2278 318.397 14.9465 299.989 18.9575 287.717C22.9684 275.445 31.2261 254.204 37.1245 240.516C43.2589 226.828 54.3478 206.06 61.6619 194.495C68.7399 182.695 81.7164 164.759 89.9742 154.375C98.2319 143.991 116.163 124.874 129.611 111.894C143.06 98.914 165.238 80.7417 178.922 71.5376C192.606 62.3334 213.369 49.8252 224.93 44.1612C236.726 38.2611 256.309 29.7649 268.578 25.0449C280.846 20.3248 299.957 14.4247 311.046 11.5927C322.135 8.99663 340.774 5.22057 352.335 3.56854C364.132 1.68052 390.321 0.264494 410.847 0.0284899V0.0284899ZM322.371 134.315C310.338 138.091 291.935 145.643 281.554 151.071C271.173 156.263 255.365 165.703 246.4 171.603C237.198 177.739 220.919 191.427 209.83 201.812C198.505 212.432 182.697 230.368 174.439 241.932C166.417 253.496 154.385 273.557 148.25 286.537C141.644 300.225 133.622 322.173 129.14 338.458C123.005 362.294 121.59 372.442 120.646 402.179C119.702 427.667 120.41 443.715 123.241 460C125.129 472.272 130.083 492.568 134.094 504.84C138.105 517.112 146.363 536.701 152.497 548.501C158.632 560.301 169.485 577.765 176.799 587.441C184.113 597.118 199.448 614.11 211.009 625.202C222.57 636.294 239.558 650.218 248.523 656.119C257.725 662.255 272.825 670.987 282.262 675.707C291.463 680.427 308.451 687.271 320.012 691.283C331.337 695.059 351.155 700.015 364.132 702.139C382.063 704.971 396.455 705.679 423.116 704.735C446.709 703.791 464.876 701.903 477.381 698.599C487.762 696.003 505.221 690.811 516.31 686.563C527.399 682.551 543.207 675.471 551.701 670.987C560.195 666.267 575.059 656.826 584.732 649.746C594.405 642.902 610.449 628.742 620.594 618.83C630.503 608.682 644.66 591.926 651.974 581.541C659.524 571.157 669.669 554.401 674.623 544.253C679.578 534.341 686.892 516.876 690.903 505.312C694.678 493.984 699.397 475.34 701.52 463.54C703.408 451.739 705.059 429.555 705.059 413.979C705.059 398.403 703.879 378.106 702.7 369.138C701.284 359.934 697.509 342.942 694.206 331.378C690.903 319.577 683.353 299.989 677.691 287.717C671.792 275.445 662.119 257.744 655.985 248.776C650.086 239.572 634.986 221.872 622.482 209.128C610.213 196.383 591.102 179.627 580.013 172.075C568.924 164.759 551.465 154.375 541.084 148.947C530.703 143.755 513.479 136.911 502.862 133.371C492.009 130.066 474.078 125.582 462.753 123.694C450.72 121.57 429.014 120.154 411.319 120.39C394.568 120.39 372.389 122.042 362.48 123.93C352.335 125.818 334.168 130.302 322.371 134.315V134.315Z" fill="#B743D0"/>
</svg>
