<svg width="911" height="1080" viewBox="0 0 911 1080" fill="none" xmlns="http://www.w3.org/2000/svg">
<path fillRule="evenodd" clipRule="evenodd" d="M456.76 0C457.982 0 460.601 1.57051 462.521 3.49002C465.838 6.80553 466.012 9.24854 466.012 54.9678C466.012 102.781 466.012 102.955 461.997 105.573C459.902 106.969 456.76 108.191 455.014 108.191C453.443 108.191 450.475 106.62 448.555 104.701C445.238 101.385 445.064 98.7675 444.714 7.15453L449.602 3.66452C452.221 1.57051 455.363 0 456.76 0ZM452.046 136.285C461.124 136.111 476.836 136.983 486.961 137.856C497.086 138.903 514.369 141.695 525.367 144.312C536.365 146.755 552.077 151.118 560.282 153.91C568.487 156.702 583.849 163.158 594.324 168.219C604.798 173.454 621.732 183.051 631.857 189.857C641.982 196.662 657.519 208.529 666.248 216.207C675.151 224.059 688.07 236.798 694.704 244.825C701.512 252.677 711.637 265.765 717.224 273.966C722.81 282.168 731.888 297 737.125 307.121C742.362 317.243 749.52 332.948 752.837 342.022C756.328 351.096 761.041 366.452 763.485 376.049C765.93 385.647 769.246 403.271 770.818 415.312C772.912 431.541 773.436 445.152 772.738 468.535C772.214 486.159 770.468 507.274 768.897 516.522C767.326 525.597 763.485 540.604 760.692 549.678C757.899 558.752 751.614 573.759 746.901 582.833C742.188 591.907 732.935 606.565 726.476 615.464C720.017 624.364 707.971 640.418 699.766 651.237C691.387 662.056 680.912 677.063 676.548 684.567C672.184 691.896 665.026 706.03 661.011 715.977C656.821 725.749 651.235 741.28 648.791 750.354C646.172 759.428 642.506 776.354 640.586 787.871C638.665 799.388 636.396 816.315 635.523 825.389C634.825 834.463 633.952 854.531 633.777 869.887C633.603 885.243 632.555 903.74 631.682 910.894C630.635 918.049 627.842 929.915 625.572 937.069C623.128 944.224 618.066 956.09 614.225 963.245C610.21 970.399 604.1 980.346 600.434 985.057C596.768 989.943 589.96 997.447 585.246 1001.81C580.707 1006.35 572.502 1012.8 567.265 1016.29C562.028 1019.96 553.299 1024.32 548.062 1026.41C542.825 1028.33 532.699 1030.78 525.716 1032C513.322 1033.92 512.973 1034.09 511.401 1040.03C510.529 1043.34 507.212 1049.97 504.069 1054.68C500.927 1059.57 494.817 1065.85 490.453 1068.99C486.088 1072.13 478.232 1075.97 472.995 1077.72C466.361 1079.81 459.902 1080.33 452.046 1079.81C445.762 1079.29 436.684 1077.19 431.971 1075.1C427.082 1073.18 419.576 1067.77 415.037 1063.23C409.8 1058 405.086 1050.84 398.103 1033.92L385.359 1032C378.376 1030.78 368.251 1028.33 363.014 1026.41C357.777 1024.32 349.048 1019.96 343.811 1016.29C338.574 1012.8 330.893 1006.7 326.703 1002.68C322.513 998.843 315.53 990.816 311.166 985.057C306.801 979.299 299.993 967.956 295.803 959.755C291.788 951.553 287.249 941.083 285.678 936.197C284.107 931.485 282.012 922.76 281.139 917.002C280.092 911.243 278.52 888.035 277.473 865.524C276.6 843.014 274.505 815.442 273.109 804.449C271.712 793.455 268.395 775.307 265.951 764.314C263.507 753.32 258.619 736.743 255.302 727.668C251.985 718.594 245.701 704.46 241.336 696.258C237.147 688.057 230.338 676.714 226.498 670.956C222.482 665.197 211.659 650.714 202.406 638.673C192.98 626.632 181.109 610.229 175.697 602.028C170.285 593.826 163.651 582.135 160.858 575.853C158.065 569.571 153.526 557.879 151.082 549.678C148.463 541.476 144.797 525.771 142.877 514.777C140.957 503.784 139.036 481.797 138.513 465.917C137.64 444.279 138.163 431.715 140.258 415.312C141.829 403.271 144.972 385.996 147.416 376.922C149.685 367.848 154.05 353.19 157.192 344.639C160.334 336.089 166.968 321.082 171.856 311.484C176.744 301.886 184.251 288.624 188.615 281.819C192.98 275.013 202.93 261.751 210.611 252.154C218.293 242.556 232.084 228.073 241.162 219.871C250.24 211.67 265.078 199.803 274.156 193.347C283.234 186.89 300.691 176.595 313.261 170.313C325.655 164.031 344.16 156.178 354.285 152.863C364.411 149.547 380.471 145.185 390.073 143.265C399.674 141.171 413.815 138.903 421.496 138.03C429.177 137.158 442.969 136.46 452.046 136.285ZM387.454 165.078C377.329 167.346 362.49 171.883 354.285 174.675C346.08 177.642 332.289 183.575 323.735 187.937C315.006 192.125 300.517 200.676 291.439 206.783C282.361 212.717 268.221 223.536 260.016 230.69C251.811 237.845 240.463 249.013 234.703 255.469C228.942 261.926 219.34 274.141 213.405 282.342C207.469 290.718 199.09 303.806 194.9 311.484C190.71 319.162 183.553 334.518 179.188 345.512C174.824 356.505 169.238 373.432 166.968 383.029C164.524 392.627 161.731 408.332 160.509 417.93C158.938 429.447 158.589 446.024 159.287 466.79C159.985 488.428 161.382 504.133 164 517.395C166.095 528.04 169.761 542 172.205 548.805C174.649 555.611 179.887 567.302 183.727 574.98C187.742 582.658 201.708 603.075 214.801 620.35C227.894 637.626 242.035 657.17 246.399 663.976C250.763 670.781 257.397 682.473 261.238 690.151C265.078 697.829 271.014 711.614 274.331 720.688C277.822 729.763 282.187 744.595 284.281 753.495L287.947 769.549H404.912C407.879 762.045 409.8 754.018 411.371 746.864C412.767 739.709 413.989 724.702 413.989 713.708C413.989 702.54 412.767 686.486 411.196 677.587C409.625 668.687 405.959 653.68 402.991 644.432C400.024 635.009 394.612 621.048 391.12 613.37C387.454 605.692 381.17 593.477 376.98 586.323C372.79 579.168 365.458 567.826 360.57 561.02C355.857 554.215 346.08 542 339.097 533.624C329.496 522.106 326.354 517.046 326.354 513.032C326.354 509.368 327.75 506.925 330.893 504.831C335.257 501.69 335.431 501.864 353.063 510.938C362.839 515.999 375.932 521.408 382.217 522.805C389.549 524.724 397.929 525.422 405.785 524.898C414.164 524.375 420.972 522.63 427.606 519.489C432.843 516.872 440.525 511.985 444.54 508.67C448.73 505.354 453.268 502.562 454.665 502.562C456.062 502.562 460.601 505.354 464.616 509.019C468.806 512.509 476.487 517.22 481.724 519.663C488.009 522.63 495.69 524.375 503.546 524.898C513.322 525.597 519.083 524.724 532.35 521.06C541.428 518.442 555.219 513.032 562.901 509.193C574.772 503.086 577.39 502.388 580.707 504.133C582.977 505.18 585.246 508.146 585.77 510.938C586.293 513.73 585.77 517.046 584.199 519.14C582.802 521.059 578.438 526.644 574.248 531.355C570.058 536.241 561.329 547.235 555.045 555.785C548.586 564.51 538.984 578.994 533.398 588.068C527.986 597.142 519.956 613.37 515.417 623.841C511.052 634.311 505.117 652.11 502.324 663.103C498.134 678.808 496.912 688.406 496.214 707.601C495.69 721.91 496.039 737.091 497.261 744.246C498.308 751.052 499.88 759.428 500.927 763.092L502.673 769.549H623.128C627.667 750.005 631.508 736.394 634.825 726.796C638.142 717.198 644.252 702.366 648.442 693.641C652.631 684.916 660.138 671.654 665.026 663.976C670.089 656.298 682.658 639.022 692.958 625.586C703.258 612.149 715.303 595.746 719.668 588.94C724.032 582.135 729.967 571.316 733.11 564.51C736.077 557.705 740.442 546.013 742.711 538.335C744.981 530.657 747.948 515.999 749.52 505.703C751.091 495.233 752.313 475.166 752.313 460.333C752.487 445.675 751.614 426.131 750.567 417.057C749.345 407.983 746.377 391.929 743.584 381.284C740.966 370.64 735.554 353.888 731.539 343.767C727.523 333.646 721.413 320.384 717.922 314.102C714.43 307.819 707.797 296.826 702.909 289.671C698.195 282.517 689.816 271.174 684.404 264.543C678.992 257.912 667.994 246.221 659.789 238.368C651.584 230.516 638.142 219.348 630.111 213.589C621.906 207.656 608.29 198.931 599.561 194.045C590.832 189.159 575.994 182.004 566.392 178.34C556.791 174.501 541.428 169.266 532.35 166.823C523.272 164.38 507.037 161.064 496.563 159.668C486.088 158.272 466.711 157.225 453.792 157.225C440.874 157.4 424.638 158.272 418.005 158.97C411.196 159.843 397.58 162.635 387.454 165.078ZM429.352 541.476C422.02 544.268 415.561 545.141 402.293 544.966C392.692 544.966 382.043 544.268 378.726 543.221L372.616 541.476C390.597 568.873 400.198 585.45 405.435 595.92C410.847 606.39 417.83 623.317 421.322 633.438C424.638 643.559 428.654 657.694 430.225 664.848C431.796 672.003 433.542 689.802 434.065 704.111C434.764 723.829 434.24 734.125 432.145 745.991C430.574 754.716 429.003 763.441 428.479 765.71L427.606 769.549C475.439 769.549 481.549 769.025 481.026 767.455C480.677 766.233 479.28 760.475 478.058 754.716C476.661 748.434 475.788 732.904 475.614 715.453C475.614 691.372 476.312 683.694 479.804 668.338C482.073 658.217 486.612 642.163 489.929 632.566C493.246 622.968 500.229 606.914 505.291 596.793C510.354 586.672 519.956 570.269 526.415 560.148L538.46 541.651C527.637 544.094 516.988 544.966 507.91 544.966C496.854 545.082 488.125 544.21 481.724 542.349C476.487 540.604 468.456 536.939 463.743 533.973C459.204 531.181 455.014 528.738 454.141 528.912C453.443 528.912 449.777 531.006 445.936 533.449C442.096 536.067 434.589 539.557 429.352 541.476ZM292.137 793.63C292.661 796.247 293.883 805.321 294.93 814.046C295.803 822.771 296.676 830.798 296.676 832.02C296.676 833.59 329.67 834.114 455.538 834.114C581.405 834.114 614.4 833.59 614.4 832.02C614.4 830.798 615.273 822.771 616.146 814.046C617.193 805.321 618.24 796.247 618.764 793.63L619.637 788.744H291.09L292.137 793.63ZM298.422 873.9C298.422 884.196 298.946 894.491 299.295 896.585L300.168 900.599H612.654V855.229H298.422V873.9ZM304.707 927.995C306.103 932.532 310.293 942.654 314.133 950.681L321.116 964.99H589.959C596.593 953.473 600.434 945.446 602.703 939.687C604.973 933.928 607.417 927.123 608.115 924.505L609.163 919.619H302.437L304.707 927.995ZM346.255 992.386C350.096 995.702 356.904 1000.41 361.094 1002.86C365.458 1005.12 372.965 1008.27 377.678 1009.66C384.661 1011.76 400.198 1012.28 455.363 1012.28C513.671 1012.28 525.891 1011.76 533.921 1009.49C539.333 1007.92 547.887 1003.9 553.124 1000.76C558.536 997.447 565.17 992.735 567.963 990.467L573.2 986.104H339.272L346.255 992.386ZM424.988 1043.69C427.432 1047.18 432.32 1051.89 435.637 1054.16C440.35 1057.48 444.714 1058.7 452.57 1059.22C459.379 1059.57 466.012 1058.7 470.726 1056.95C475.265 1055.38 480.502 1051.37 484.168 1046.83C487.485 1042.64 490.627 1037.93 491.151 1036.36C492.024 1033.57 489.58 1033.22 456.236 1033.22C428.828 1033.22 420.449 1033.74 420.449 1035.49C420.449 1036.71 422.544 1040.37 424.988 1043.69ZM52.797 446.897C88.2355 446.897 100.979 447.42 103.423 449.165C105.344 450.387 106.566 453.353 106.566 456.494C106.566 459.984 105.169 462.776 102.55 464.87C98.8844 467.662 94.1709 468.011 53.8445 468.011C21.723 467.837 8.10625 467.139 4.96392 465.568C2.17075 464.172 0.425014 461.729 0.0758676 458.239C-0.273279 455.098 0.599588 451.783 2.34532 450.038C4.96392 447.246 9.85198 446.897 52.797 446.897ZM857.231 446.897C884.989 446.897 905.414 447.595 907.509 448.642C910.127 449.863 911 452.132 911 456.494C911 460.857 909.953 463.474 907.159 465.219C903.842 467.488 895.812 467.837 856.359 467.488C811.842 466.964 809.398 466.79 806.954 463.474C805.558 461.555 804.336 458.588 804.161 456.669C803.987 454.924 805.383 451.957 807.129 450.212C810.097 447.246 814.112 446.897 857.231 446.897ZM233.655 61.5988C239.765 62.1223 240.114 62.8203 262.983 102.257C275.727 124.419 286.027 144.487 286.202 146.755C286.202 149.198 285.154 152.165 283.932 153.386C282.885 154.608 279.568 155.48 276.6 155.655C273.632 155.655 270.316 154.608 269.268 153.386C268.221 152.165 257.397 134.017 245.352 113.251C233.131 92.3109 223.006 73.1159 222.832 70.3238C222.657 67.7063 223.704 64.5653 225.101 63.3438C226.498 62.1223 230.338 61.4243 233.655 61.5988ZM678.643 61.2498C681.261 61.2498 684.753 62.6458 686.499 64.2163C688.593 66.3103 689.292 68.8115 688.593 71.7198C688.07 74.1629 678.119 92.6599 666.597 112.728C654.901 132.97 644.077 150.769 642.506 152.514C640.935 154.259 637.443 155.655 634.825 155.655C632.206 155.48 628.889 154.433 627.318 152.863C625.922 151.467 624.7 148.675 624.7 146.755C624.7 144.836 634.65 126.164 646.696 105.399C658.741 84.4584 669.914 65.9613 671.485 64.3908C672.882 62.6458 676.199 61.2498 678.643 61.2498ZM69.2069 223.536C70.7781 223.536 90.1558 234.006 112.152 246.744C134.148 259.483 153.002 271.174 154.05 272.745C155.446 274.839 155.446 277.282 154.224 280.597C153.177 283.389 150.558 286.181 148.114 287.054C144.448 288.45 138.338 285.483 103.598 265.59C81.6017 252.852 62.5732 241.16 61.3511 239.59C60.1291 238.019 59.0817 235.227 59.0817 233.657C59.0817 231.912 60.6529 228.945 62.5732 227.026C64.4935 225.106 67.4612 223.536 69.2069 223.536ZM842.044 223.71C843.964 223.71 846.932 225.106 848.677 226.677C850.423 228.422 851.82 231.737 851.82 234.006C851.82 236.449 850.423 239.764 848.677 241.335C846.932 242.731 828.252 254.073 807.129 266.288C786.005 278.503 767.326 288.101 765.406 287.752C763.66 287.577 760.692 285.309 758.772 282.866C756.503 279.725 755.979 277.456 756.852 274.49C757.899 271.523 769.421 264.02 798.4 247.093C820.571 234.18 840.123 223.71 842.044 223.71Z" fill="#F85548"/>
</svg>
